<svg width="25" height="24" viewBox="0 0 25 24" fill="none" xmlns="http://www.w3.org/2000/svg">
<g clip-path="url(#clip0_24_83)">
<path d="M0.799805 3.20169C0.799805 2.42947 1.07008 1.79241 1.61062 1.29049C2.15115 0.788555 2.85387 0.537598 3.71872 0.537598C4.56815 0.537598 5.2554 0.784686 5.7805 1.27891C6.32103 1.78856 6.59131 2.45264 6.59131 3.27119C6.59131 4.0125 6.32877 4.63025 5.80367 5.12447C5.26313 5.63412 4.5527 5.88895 3.67239 5.88895H3.64923C2.7998 5.88895 2.11255 5.63412 1.58745 5.12447C1.06235 4.61482 0.799805 3.97388 0.799805 3.20169ZM1.10096 23.472V7.99706H6.24382V23.472H1.10096ZM9.09324 23.472H14.2361V14.831C14.2361 14.2905 14.2979 13.8735 14.4214 13.5801C14.6376 13.055 14.9658 12.6109 15.406 12.248C15.8461 11.8851 16.3983 11.7036 17.0624 11.7036C18.7921 11.7036 19.6569 12.8696 19.6569 15.2017V23.472H24.7998V14.5994C24.7998 12.3137 24.2593 10.5801 23.1782 9.3986C22.0971 8.21713 20.6685 7.6264 18.8925 7.6264C16.9002 7.6264 15.3481 8.48354 14.2361 10.1978V10.2442H14.2129L14.2361 10.1978V7.99706H9.09324C9.12412 8.49126 9.13957 10.0279 9.13957 12.6071C9.13957 15.1862 9.12412 18.8079 9.09324 23.472Z" fill="white"/>
</g>
<defs>
<clipPath id="clip0_24_83">
<rect width="24" height="24" fill="white" transform="translate(0.799805)"/>
</clipPath>
</defs>
</svg>
