<svg width="25" height="24" viewBox="0 0 25 24" fill="none" xmlns="http://www.w3.org/2000/svg">
<path d="M24.7328 7.05204C24.6752 5.77422 24.4688 4.89992 24.1759 4.13611C23.8687 3.34828 23.4606 2.67574 22.7932 2.01281C22.1259 1.34988 21.4586 0.931946 20.6712 0.629304C19.9079 0.331465 19.0341 0.129704 17.757 0.0720576C16.4752 0.0144115 16.0671 0 12.8121 0C9.5522 0 9.14412 0.0144115 7.86706 0.0720576C6.59001 0.129704 5.71623 0.336269 4.95288 0.629304C4.16072 0.93675 3.48859 1.34508 2.82606 2.01281C2.16352 2.68054 1.74584 3.34828 1.44338 4.13611C1.15052 4.89992 0.944079 5.77422 0.886468 7.05204C0.828856 8.33467 0.814453 8.743 0.814453 12C0.814453 15.2618 0.828856 15.6701 0.886468 16.948C0.944079 18.2258 1.15052 19.1001 1.44338 19.8639C1.75064 20.6517 2.15872 21.3243 2.82606 21.9872C3.48859 22.6549 4.16072 23.0681 4.94808 23.3707C5.71143 23.6685 6.58521 23.8703 7.86226 23.9279C9.14412 23.9856 9.5522 24 12.8073 24C16.0671 24 16.4752 23.9856 17.7522 23.9279C19.0293 23.8703 19.9031 23.6637 20.6664 23.3707C21.4538 23.0633 22.1259 22.6549 22.7884 21.9872C23.451 21.3195 23.8687 20.6517 24.1711 19.8639C24.4688 19.1001 24.6704 18.2258 24.728 16.948C24.7856 15.6653 24.8001 15.257 24.8001 12C24.8001 8.743 24.7904 8.32986 24.7328 7.05204ZM22.5772 16.8519C22.5244 18.024 22.3276 18.6629 22.1643 19.0809C21.9483 19.6381 21.6842 20.0416 21.2617 20.4644C20.8393 20.8871 20.4408 21.1417 19.8791 21.3675C19.4566 21.5308 18.8181 21.7278 17.6514 21.7806C16.3888 21.8383 16.0095 21.8527 12.8025 21.8527C9.59541 21.8527 9.21613 21.8383 7.95348 21.7806C6.78205 21.7278 6.14352 21.5308 5.72583 21.3675C5.16892 21.1513 4.76564 20.8871 4.34316 20.4644C3.92067 20.0416 3.66622 19.6429 3.44058 19.0809C3.27735 18.6581 3.08051 18.0192 3.0277 16.8519C2.97008 15.5885 2.95568 15.209 2.95568 12C2.95568 8.79103 2.97008 8.41153 3.0277 7.14812C3.08051 5.97598 3.27735 5.33707 3.44058 4.91914C3.65662 4.36189 3.92067 3.95837 4.34316 3.53563C4.76564 3.11289 5.16412 2.85829 5.72583 2.63251C6.14832 2.46918 6.78685 2.27222 7.95348 2.21938C9.21613 2.16173 9.59541 2.14732 12.8025 2.14732C16.0095 2.14732 16.3888 2.16173 17.6514 2.21938C18.8229 2.27222 19.4614 2.46918 19.8791 2.63251C20.436 2.84868 20.8393 3.11289 21.2617 3.53563C21.6842 3.95837 21.9387 4.35709 22.1643 4.91914C22.3276 5.34187 22.5244 5.98079 22.5772 7.14812C22.6348 8.41153 22.6492 8.79103 22.6492 12C22.6492 15.209 22.63 15.5885 22.5772 16.8519Z" fill="white"/>
<path d="M12.8026 5.83191C9.39393 5.83191 6.63818 8.59412 6.63818 12C6.63818 15.4108 9.39874 18.1682 12.8026 18.1682C16.2065 18.1682 18.967 15.4012 18.967 12C18.967 8.58931 16.2113 5.83191 12.8026 5.83191ZM12.8026 16.0016C10.5942 16.0016 8.80342 14.2098 8.80342 12C8.80342 9.79028 10.5942 7.99844 12.8026 7.99844C15.0111 7.99844 16.8018 9.79028 16.8018 12C16.8018 14.2098 15.0111 16.0016 12.8026 16.0016Z" fill="white"/>
<path d="M19.2069 7.03282C20.0023 7.03282 20.6472 6.38759 20.6472 5.59167C20.6472 4.79574 20.0023 4.15051 19.2069 4.15051C18.4114 4.15051 17.7666 4.79574 17.7666 5.59167C17.7666 6.38759 18.4114 7.03282 19.2069 7.03282Z" fill="white"/>
<path d="M0.799805 12C0.799805 15.2618 0.814208 15.6701 0.871819 16.948C0.929431 18.2258 1.13587 19.1001 1.42873 19.8639C1.73599 20.6517 2.14407 21.3243 2.81141 21.9872C3.47394 22.6501 4.14607 23.0681 4.93343 23.3707C5.69678 23.6685 6.57056 23.8703 7.84761 23.9279C9.12947 23.9856 9.53755 24 12.7926 24C16.0525 24 16.4605 23.9856 17.7376 23.9279C19.0146 23.8703 19.8884 23.6637 20.6518 23.3707C21.4391 23.0633 22.1113 22.6549 22.7738 21.9872C23.4363 21.3243 23.854 20.6517 24.1565 19.8639C24.4541 19.1001 24.6558 18.2258 24.7134 16.948C24.771 15.6653 24.7854 15.257 24.7854 12C24.7854 8.73819 24.771 8.32986 24.7134 7.05204C24.6558 5.77422 24.4493 4.89992 24.1565 4.13611C23.8492 3.34828 23.4411 2.67574 22.7738 2.01281C22.1161 1.34508 21.4439 0.931946 20.6566 0.629304C19.8932 0.331465 19.0194 0.129704 17.7424 0.0720576C16.4605 0.0144115 16.0525 0 12.7974 0C9.53755 0 9.12947 0.0144115 7.85241 0.0720576C6.57536 0.129704 5.70158 0.336269 4.93823 0.629304C4.15087 0.93675 3.47874 1.34508 2.81621 2.01281C2.15368 2.68054 1.73599 3.34828 1.43353 4.13611C1.13587 4.89992 0.929431 5.77422 0.871819 7.05204C0.814208 8.32986 0.799805 8.73819 0.799805 12ZM2.96504 12C2.96504 8.79584 2.97944 8.41153 3.03705 7.14812C3.08986 5.97598 3.2867 5.33707 3.44993 4.91914C3.66598 4.36189 3.93003 3.95837 4.35252 3.53563C4.775 3.11289 5.17348 2.85829 5.73519 2.63251C6.15768 2.46918 6.7962 2.27222 7.96284 2.21938C9.22549 2.16173 9.60476 2.14732 12.8118 2.14732C16.0188 2.14732 16.3981 2.16173 17.6608 2.21938C18.8322 2.27222 19.4707 2.46918 19.8884 2.63251C20.4453 2.84868 20.8486 3.11289 21.2711 3.53563C21.6936 3.95837 21.948 4.35709 22.1737 4.91914C22.3369 5.34187 22.5338 5.98079 22.5866 7.14812C22.6442 8.41153 22.6586 8.79103 22.6586 12C22.6586 15.209 22.6442 15.5885 22.5866 16.8519C22.5338 18.024 22.3369 18.6629 22.1737 19.0809C21.9576 19.6381 21.6936 20.0416 21.2711 20.4644C20.8486 20.8871 20.4501 21.1417 19.8884 21.3675C19.4659 21.5308 18.8274 21.7278 17.6608 21.7806C16.3981 21.8383 16.0188 21.8527 12.8118 21.8527C9.60476 21.8527 9.22549 21.8383 7.96284 21.7806C6.7914 21.7278 6.15288 21.5308 5.73519 21.3675C5.17828 21.1513 4.775 20.8871 4.35252 20.4644C3.93003 20.0416 3.67558 19.6429 3.44993 19.0809C3.2867 18.6581 3.08986 18.0192 3.03705 16.8519C2.97464 15.5885 2.96504 15.2042 2.96504 12Z" fill="white"/>
</svg>
