<svg width="76" height="28" viewBox="0 0 76 28" fill="none" xmlns="http://www.w3.org/2000/svg">
<path d="M23.6923 23.5447C21.7721 25.4942 19.3168 26.8305 16.6371 27.3846C13.9573 27.9386 11.1735 27.6856 8.63753 26.6576C6.10158 25.6295 3.92744 23.8725 2.39004 21.6088C0.852644 19.3451 0.0210412 16.6763 0.000394019 13.94C-0.0202532 11.2036 0.770982 8.52262 2.27404 6.23597C3.77711 3.94931 5.92449 2.15972 8.44463 1.09349C10.9648 0.0272635 13.7445 -0.267709 16.4323 0.245874C19.1201 0.759457 21.5952 2.05853 23.5447 3.97881L22.328 5.21398C20.6228 3.53433 18.4579 2.39805 16.1069 1.94882C13.7559 1.4996 11.3245 1.75761 9.12018 2.69022C6.91584 3.62284 5.03755 5.18818 3.72284 7.18829C2.40813 9.1884 1.71604 11.5334 1.7341 13.9269C1.75216 16.3203 2.47956 18.6547 3.8243 20.6347C5.16904 22.6148 7.07074 24.1516 9.2889 25.0508C11.5071 25.9501 13.9421 26.1714 16.286 25.6867C18.6299 25.2021 20.7775 24.0332 22.4572 22.328L23.6923 23.5447Z" fill="white"/>
<path d="M19.5218 20.7312C18.4745 21.7944 17.1812 22.5829 15.7564 23.0269C14.3316 23.4708 12.8193 23.5566 11.3535 23.2765C9.88766 22.9964 8.51351 22.3591 7.35279 21.4211C6.19206 20.4831 5.28059 19.2733 4.6991 17.8989C4.11761 16.5245 3.88405 15.0278 4.01912 13.5416C4.15418 12.0554 4.65371 10.6254 5.47343 9.3783C6.29316 8.13122 7.40779 7.10555 8.71859 6.39215C10.0294 5.67874 11.4959 5.29962 12.9882 5.28836L12.9931 5.9307C11.6064 5.94116 10.2437 6.29345 9.02567 6.95636C7.80765 7.61927 6.77192 8.57233 6.01021 9.73113C5.24851 10.8899 4.78435 12.2187 4.65884 13.5997C4.53334 14.9808 4.75036 16.3715 5.29069 17.6486C5.83102 18.9257 6.67798 20.0499 7.75654 20.9215C8.8351 21.7931 10.112 22.3853 11.4741 22.6455C12.8361 22.9058 14.2414 22.8261 15.5653 22.4136C16.8893 22.001 18.091 21.2684 19.0642 20.2804L19.5218 20.7312Z" fill="white"/>
<path d="M9.34164 20.9657C7.60805 19.4957 6.47281 17.443 6.16049 15.2136C5.84817 12.9842 6.38153 10.7404 7.65504 8.92618L8.1774 9.29931C6.99403 10.9851 6.49843 13.0701 6.78864 15.1417C7.07885 17.2133 8.13373 19.1207 9.74462 20.4866L9.34164 20.9657Z" fill="white"/>
<path d="M36.365 14.6884C36.365 13.5824 36.1558 12.5402 35.7375 11.5619C35.3263 10.5764 34.7095 9.7788 33.8871 9.16909C33.0647 8.55937 32.0757 8.25451 30.9201 8.25451C29.7644 8.25451 28.7754 8.55937 27.953 9.16909C27.1306 9.7788 26.5103 10.5764 26.092 11.5619C25.6808 12.5402 25.4752 13.5824 25.4752 14.6884C25.4752 15.7944 25.6808 16.8331 26.092 17.8044C26.5103 18.7756 27.1306 19.5626 27.953 20.1652C28.7754 20.7608 29.7644 21.0585 30.9201 21.0585C32.0757 21.0585 33.0647 20.7608 33.8871 20.1652C34.7095 19.5626 35.3263 18.7756 35.7375 17.8044C36.1558 16.8331 36.365 15.7944 36.365 14.6884ZM35.3441 14.6884C35.3441 15.6314 35.1774 16.5211 34.8442 17.3577C34.511 18.1872 34.0112 18.8607 33.3448 19.3783C32.6783 19.8887 31.8701 20.144 30.9201 20.144C29.97 20.144 29.1618 19.8887 28.4954 19.3783C27.829 18.8607 27.3291 18.1872 26.9959 17.3577C26.6627 16.5211 26.4961 15.6314 26.4961 14.6884C26.4961 13.7313 26.6662 12.8345 27.0065 11.9979C27.3469 11.1542 27.8502 10.4736 28.5167 9.95604C29.1831 9.43141 29.9842 9.16909 30.9201 9.16909C31.8559 9.16909 32.657 9.43141 33.3235 9.95604C33.9899 10.4736 34.4933 11.1542 34.8336 11.9979C35.1739 12.8345 35.3441 13.7313 35.3441 14.6884Z" fill="white"/>
<path d="M49.9559 20.8777C50.119 20.8777 50.2466 20.8317 50.3388 20.7395C50.438 20.6473 50.4877 20.5374 50.4877 20.4098C50.4877 20.2893 50.4416 20.1865 50.3494 20.1014C50.2643 20.0093 50.1403 19.9632 49.9772 19.9632H48.616V9.33924H49.8177C49.9808 9.33924 50.1084 9.2967 50.2005 9.21162C50.2998 9.11946 50.3494 9.01311 50.3494 8.89259C50.3494 8.76497 50.2998 8.65508 50.2005 8.56292C50.1084 8.47075 49.9772 8.42467 49.8071 8.42467H47.7652C47.6518 8.42467 47.5525 8.45657 47.4675 8.52038C47.3824 8.5771 47.3221 8.65154 47.2867 8.7437L44.2026 15.8476L41.0016 8.79688C40.8882 8.54874 40.7251 8.42467 40.5124 8.42467H38.4068C38.2437 8.42467 38.1126 8.47075 38.0133 8.56292C37.9212 8.65508 37.8751 8.76497 37.8751 8.89259C37.8751 9.01311 37.9212 9.11946 38.0133 9.21162C38.1055 9.2967 38.2331 9.33924 38.3962 9.33924H39.6617V19.9632H38.2473C38.0842 19.9632 37.9566 20.0093 37.8644 20.1014C37.7723 20.1936 37.7262 20.2999 37.7262 20.4205C37.7262 20.5481 37.7723 20.658 37.8644 20.7501C37.9566 20.8352 38.0878 20.8777 38.2579 20.8777H41.9481C42.1183 20.8777 42.2494 20.8317 42.3416 20.7395C42.4409 20.6473 42.4905 20.5374 42.4905 20.4098C42.4905 20.2893 42.4444 20.1865 42.3522 20.1014C42.2601 20.0093 42.1289 19.9632 41.9587 19.9632H40.6826V10.4771L43.522 16.7834C43.5858 16.9394 43.6745 17.0564 43.7879 17.1344C43.9013 17.2053 44.0254 17.2407 44.1601 17.2407C44.3019 17.2407 44.4366 17.1982 44.5642 17.1131C44.6918 17.0209 44.7911 16.8933 44.862 16.7303L47.5951 10.4346V19.9632H46.1807C46.0176 19.9632 45.89 20.0093 45.7978 20.1014C45.7057 20.1865 45.6596 20.2893 45.6596 20.4098C45.6596 20.5374 45.7057 20.6473 45.7978 20.7395C45.8971 20.8317 46.0318 20.8777 46.2019 20.8777H49.9559Z" fill="white"/>
<path d="M59.6015 12.5934C59.6015 12.4091 59.5625 12.2708 59.4845 12.1787C59.4065 12.0794 59.3108 12.0298 59.1974 12.0298C59.091 12.0298 58.9953 12.0723 58.9102 12.1574C58.8323 12.2425 58.7862 12.3595 58.772 12.5083L58.6338 13.9227H55.1669V9.33924H61.6433L61.7922 11.9341C61.7993 12.0617 61.8454 12.1609 61.9305 12.2318C62.0226 12.3027 62.1254 12.3382 62.2389 12.3382C62.3523 12.3382 62.4516 12.2992 62.5366 12.2212C62.6217 12.1361 62.6642 12.0191 62.6642 11.8703V8.99893C62.6642 8.82169 62.6075 8.68344 62.4941 8.58419C62.3878 8.47784 62.246 8.42467 62.0687 8.42467H52.7316C52.5685 8.42467 52.4373 8.47075 52.3381 8.56292C52.2459 8.65508 52.1998 8.76497 52.1998 8.89259C52.1998 9.01311 52.2424 9.11946 52.3274 9.21162C52.4196 9.2967 52.5472 9.33924 52.7103 9.33924H54.146V19.9738H52.3381C52.175 19.9738 52.0439 20.0199 51.9446 20.1121C51.8524 20.1971 51.8064 20.2999 51.8064 20.4205C51.8064 20.541 51.8524 20.6473 51.9446 20.7395C52.0439 20.8317 52.1786 20.8777 52.3487 20.8777H62.1963C62.3736 20.8777 62.5154 20.8281 62.6217 20.7289C62.7351 20.6296 62.7919 20.4914 62.7919 20.3141V17.4428C62.7919 17.2655 62.7458 17.1308 62.6536 17.0387C62.5685 16.9394 62.4657 16.8898 62.3452 16.8898C62.2247 16.8898 62.1183 16.9288 62.0262 17.0068C61.934 17.0847 61.8844 17.184 61.8773 17.3045L61.7071 19.9738H55.1669V14.7416H58.6338L58.772 16.3155C58.7791 16.4573 58.8252 16.5707 58.9102 16.6558C58.9953 16.7338 59.091 16.7728 59.1974 16.7728C59.3108 16.7728 59.4065 16.7267 59.4845 16.6346C59.5625 16.5424 59.6015 16.4077 59.6015 16.2304V12.5934Z" fill="white"/>
<path d="M72.4481 8.42467C72.1645 8.42467 72.0227 8.58064 72.0227 8.89259C72.0227 9.19036 72.1609 9.33924 72.4374 9.33924H73.5115L70.5657 13.6888L67.6412 9.33924H69.2151C69.4916 9.33924 69.6299 9.19036 69.6299 8.89259C69.6299 8.58064 69.4881 8.42467 69.2045 8.42467H65.6313C65.3477 8.42467 65.2059 8.58064 65.2059 8.89259C65.2059 9.19036 65.3442 9.33924 65.6207 9.33924H66.4927L69.9915 14.5395L66.2906 20.0057H65.3867C65.1102 20.0057 64.972 20.151 64.972 20.4417C64.972 20.7324 65.1137 20.8777 65.3973 20.8777H69.0982C69.3817 20.8777 69.5235 20.7324 69.5235 20.4417C69.5235 20.151 69.3853 20.0057 69.1088 20.0057H67.5242L70.6083 15.4541L73.6817 20.0057H72.0227C71.8596 20.0057 71.732 20.0518 71.6398 20.144C71.5477 20.229 71.5016 20.3283 71.5016 20.4417C71.5016 20.5623 71.5477 20.6651 71.6398 20.7501C71.732 20.8352 71.8631 20.8777 72.0333 20.8777H75.564C75.8547 20.8777 76 20.7289 76 20.4311C76 20.1475 75.8617 20.0057 75.5852 20.0057H74.8089L71.1825 14.614L74.7558 9.33924H75.5321C75.8086 9.33924 75.9468 9.19036 75.9468 8.89259C75.9468 8.58064 75.805 8.42467 75.5214 8.42467H72.4481Z" fill="white"/>
</svg>
