<svg width="114" height="103" viewBox="0 0 114 103" fill="none" xmlns="http://www.w3.org/2000/svg">
<path d="M73.9753 50.4175C70.6682 53.7749 66.4398 56.0762 61.8247 57.0304C57.2097 57.9847 52.4153 57.549 48.0479 55.7784C43.6805 54.0079 39.9362 50.982 37.2885 47.0834C34.6408 43.1849 33.2086 38.5887 33.1731 33.8762C33.1375 29.1637 34.5002 24.5464 37.0887 20.6083C39.6773 16.6703 43.3755 13.5882 47.7157 11.752C52.0559 9.91571 56.8432 9.40771 61.4721 10.2922C66.101 11.1767 70.3637 13.414 73.7211 16.7211L71.6257 18.8483C68.689 15.9556 64.9605 13.9987 60.9117 13.225C56.8628 12.4514 52.6755 12.8957 48.8792 14.5019C45.0828 16.108 41.848 18.8038 39.5838 22.2484C37.3197 25.693 36.1277 29.7317 36.1588 33.8537C36.1899 37.9756 37.4427 41.9958 39.7586 45.4059C42.0745 48.8159 45.3496 51.4626 49.1697 53.0113C52.9899 54.56 57.1834 54.9411 61.2201 54.1064C65.2569 53.2717 68.9554 51.2588 71.8481 48.3221L73.9753 50.4175Z" fill="black"/>
<path d="M66.7928 45.572C64.9892 47.4031 62.7619 48.761 60.3081 49.5256C57.8543 50.2902 55.2499 50.4379 52.7254 49.9555C50.2009 49.4732 47.8344 48.3756 45.8354 46.7602C43.8364 45.1447 42.2666 43.0612 41.2652 40.6942C40.2637 38.3272 39.8615 35.7497 40.0941 33.1901C40.3267 30.6305 41.187 28.1678 42.5987 26.0201C44.0105 23.8723 45.9301 22.1059 48.1875 20.8773C50.445 19.6487 52.9706 18.9958 55.5407 18.9764L55.5491 20.0826C53.1609 20.1006 50.8141 20.7073 48.7164 21.849C46.6187 22.9907 44.835 24.632 43.5232 26.6277C42.2114 28.6234 41.412 30.9118 41.1958 33.2902C40.9797 35.6687 41.3535 38.0637 42.284 40.2631C43.2146 42.4626 44.6732 44.3986 46.5307 45.8997C48.3882 47.4008 50.5872 48.4207 52.933 48.8689C55.2788 49.3171 57.6989 49.1799 59.979 48.4695C62.2591 47.759 64.3288 46.4971 66.0047 44.7957L66.7928 45.572Z" fill="black"/>
<path d="M49.2606 45.9758C46.275 43.4443 44.3199 39.9091 43.782 36.0696C43.2441 32.2301 44.1626 28.3659 46.3559 25.2414L47.2555 25.884C45.2175 28.7874 44.364 32.378 44.8638 35.9458C45.3636 39.5135 47.1803 42.7984 49.9546 45.1507L49.2606 45.9758Z" fill="black"/>
<path d="M20.9888 85.8593C20.9888 85.6518 20.8789 85.4686 20.6592 85.3099C20.4394 85.1389 20.2013 85.0535 19.9449 85.0535C19.5786 85.0535 19.3344 85.2244 19.2123 85.5663C18.7117 87.2268 17.8631 88.5272 16.6665 89.4673C15.4699 90.4075 14.0048 90.8776 12.2709 90.8776C10.818 90.8776 9.47488 90.493 8.24168 89.7238C7.00848 88.9423 6.01948 87.819 5.27468 86.3538C4.54208 84.8764 4.17579 83.1426 4.17579 81.1524C4.17579 79.382 4.50545 77.8008 5.16479 76.4089C5.82412 75.0169 6.76428 73.9303 7.98527 73.1488C9.20626 72.3674 10.6409 71.9767 12.2893 71.9767C13.3759 71.9767 14.3772 72.1903 15.2929 72.6177C16.2086 73.0328 16.9718 73.6189 17.5823 74.3759C18.205 75.1329 18.6079 76.0059 18.791 76.9949C18.8399 77.2636 18.9437 77.4772 19.1024 77.636C19.2611 77.7825 19.4504 77.8557 19.6701 77.8557C19.9021 77.8557 20.0975 77.7825 20.2562 77.636C20.4272 77.4894 20.5126 77.2758 20.5126 76.9949V71.6287C20.5126 71.3356 20.4211 71.1098 20.2379 70.951C20.067 70.7801 19.8594 70.6946 19.6152 70.6946C19.371 70.6946 19.1573 70.7801 18.9742 70.951C18.8032 71.1098 18.7178 71.3295 18.7178 71.6104V73.5517C18.3881 72.9535 17.8936 72.4162 17.2343 71.94C16.5871 71.4639 15.8301 71.0914 14.9632 70.8228C14.0963 70.542 13.1867 70.4016 12.2343 70.4016C10.3662 70.4016 8.68734 70.8473 7.19774 71.7386C5.70813 72.6299 4.53598 73.8814 3.68128 75.4931C2.8388 77.1048 2.41756 78.9485 2.41756 81.0242C2.41756 83.3075 2.8388 85.316 3.68128 87.0498C4.53598 88.7714 5.70813 90.1023 7.19774 91.0424C8.68734 91.9826 10.3723 92.4527 12.2526 92.4527C13.9254 92.4527 15.3723 92.1413 16.5933 91.5186C17.8265 90.8959 18.8032 90.0962 19.5236 89.1194C20.244 88.1304 20.7263 87.0864 20.9705 85.9875C20.9827 85.9631 20.9888 85.9204 20.9888 85.8593ZM43.4428 81.4821C43.4428 79.5773 43.0826 77.7825 42.3622 76.0975C41.6541 74.4003 40.5918 73.0267 39.1755 71.9767C37.7591 70.9266 36.0558 70.4016 34.0656 70.4016C32.0754 70.4016 30.3721 70.9266 28.9558 71.9767C27.5394 73.0267 26.4711 74.4003 25.7507 76.0975C25.0425 77.7825 24.6884 79.5773 24.6884 81.4821C24.6884 83.3868 25.0425 85.1756 25.7507 86.8483C26.4711 88.5211 27.5394 89.8764 28.9558 90.9142C30.3721 91.9399 32.0754 92.4527 34.0656 92.4527C36.0558 92.4527 37.7591 91.9399 39.1755 90.9142C40.5918 89.8764 41.6541 88.5211 42.3622 86.8483C43.0826 85.1756 43.4428 83.3868 43.4428 81.4821ZM41.6846 81.4821C41.6846 83.106 41.3977 84.6383 40.8238 86.0791C40.2499 87.5077 39.3891 88.6676 38.2414 89.5589C37.0937 90.438 35.7017 90.8776 34.0656 90.8776C32.4295 90.8776 31.0376 90.438 29.8898 89.5589C28.7421 88.6676 27.8813 87.5077 27.3074 86.0791C26.7336 84.6383 26.4466 83.106 26.4466 81.4821C26.4466 79.8337 26.7397 78.2892 27.3258 76.8484C27.9118 75.3954 28.7787 74.2233 29.9265 73.332C31.0742 72.4284 32.4539 71.9767 34.0656 71.9767C35.6773 71.9767 37.057 72.4284 38.2048 73.332C39.3525 74.2233 40.2194 75.3954 40.8055 76.8484C41.3916 78.2892 41.6846 79.8337 41.6846 81.4821ZM66.8492 92.1413C67.13 92.1413 67.3498 92.062 67.5085 91.9032C67.6795 91.7445 67.7649 91.5552 67.7649 91.3355C67.7649 91.1279 67.6856 90.9509 67.5268 90.8043C67.3803 90.6456 67.1667 90.5662 66.8858 90.5662H64.5415V72.2697H66.6111C66.8919 72.2697 67.1117 72.1964 67.2704 72.0499C67.4414 71.8912 67.5268 71.708 67.5268 71.5005C67.5268 71.2807 67.4414 71.0914 67.2704 70.9327C67.1117 70.774 66.8858 70.6946 66.5928 70.6946H63.0763C62.881 70.6946 62.71 70.7496 62.5635 70.8595C62.417 70.9571 62.3132 71.0853 62.2522 71.2441L56.9409 83.4784L51.4281 71.3356C51.2327 70.9083 50.9519 70.6946 50.5856 70.6946H46.9593C46.6784 70.6946 46.4526 70.774 46.2816 70.9327C46.1229 71.0914 46.0435 71.2807 46.0435 71.5005C46.0435 71.708 46.1229 71.8912 46.2816 72.0499C46.4404 72.1964 46.6601 72.2697 46.941 72.2697H49.1204V90.5662H46.6846C46.4037 90.5662 46.1839 90.6456 46.0252 90.8043C45.8665 90.9631 45.7871 91.1462 45.7871 91.3538C45.7871 91.5736 45.8665 91.7628 46.0252 91.9215C46.1839 92.0681 46.4098 92.1413 46.7029 92.1413H53.0581C53.3512 92.1413 53.577 92.062 53.7358 91.9032C53.9067 91.7445 53.9922 91.5552 53.9922 91.3355C53.9922 91.1279 53.9128 90.9509 53.7541 90.8043C53.5954 90.6456 53.3695 90.5662 53.0764 90.5662H50.8787V74.2294L55.7687 85.0901C55.8786 85.3587 56.0312 85.5602 56.2266 85.6945C56.4219 85.8166 56.6356 85.8776 56.8676 85.8776C57.1118 85.8776 57.3438 85.8044 57.5636 85.6579C57.7833 85.4991 57.9543 85.2794 58.0764 84.9985L62.7833 74.1561V90.5662H60.3474C60.0666 90.5662 59.8468 90.6456 59.6881 90.8043C59.5294 90.9509 59.45 91.1279 59.45 91.3355C59.45 91.5552 59.5294 91.7445 59.6881 91.9032C59.859 92.062 60.091 92.1413 60.3841 92.1413H66.8492ZM83.4608 77.874C83.4608 77.5566 83.3936 77.3185 83.2593 77.1598C83.125 76.9888 82.9602 76.9034 82.7648 76.9034C82.5817 76.9034 82.4168 76.9766 82.2703 77.1231C82.136 77.2697 82.0566 77.4711 82.0322 77.7275L81.7941 80.1634H75.8235V72.2697H86.9772L87.2336 76.7385C87.2458 76.9583 87.3252 77.1292 87.4717 77.2513C87.6305 77.3734 87.8075 77.4345 88.0029 77.4345C88.1982 77.4345 88.3691 77.3673 88.5157 77.233C88.6622 77.0865 88.7354 76.885 88.7354 76.6286V71.6836C88.7354 71.3784 88.6378 71.1403 88.4424 70.9693C88.2593 70.7862 88.0151 70.6946 87.7098 70.6946H71.6294C71.3485 70.6946 71.1227 70.774 70.9517 70.9327C70.793 71.0914 70.7136 71.2807 70.7136 71.5005C70.7136 71.708 70.7869 71.8912 70.9334 72.0499C71.0921 72.1964 71.3119 72.2697 71.5927 72.2697H74.0653V90.5846H70.9517C70.6709 90.5846 70.445 90.6639 70.2741 90.8226C70.1153 90.9692 70.036 91.1462 70.036 91.3538C70.036 91.5613 70.1153 91.7445 70.2741 91.9032C70.445 92.062 70.677 92.1413 70.97 92.1413H87.9296C88.2348 92.1413 88.479 92.0558 88.6622 91.8849C88.8575 91.714 88.9552 91.4759 88.9552 91.1706V86.2256C88.9552 85.9204 88.8759 85.6884 88.7171 85.5297C88.5706 85.3587 88.3936 85.2732 88.186 85.2732C87.9784 85.2732 87.7953 85.3404 87.6366 85.4747C87.4778 85.609 87.3924 85.78 87.3801 85.9875L87.0871 90.5846H75.8235V81.5736H81.7941L82.0322 84.2842C82.0444 84.5284 82.1238 84.7238 82.2703 84.8703C82.4168 85.0046 82.5817 85.0718 82.7648 85.0718C82.9602 85.0718 83.125 84.9924 83.2593 84.8337C83.3936 84.675 83.4608 84.443 83.4608 84.1377V77.874ZM105.585 70.6946C105.097 70.6946 104.853 70.9632 104.853 71.5005C104.853 72.0133 105.091 72.2697 105.567 72.2697H107.417L102.343 79.7605L97.3068 72.2697H100.017C100.494 72.2697 100.732 72.0133 100.732 71.5005C100.732 70.9632 100.487 70.6946 99.9991 70.6946H93.8453C93.3569 70.6946 93.1127 70.9632 93.1127 71.5005C93.1127 72.0133 93.3508 72.2697 93.827 72.2697H95.3288L101.354 81.2257L94.9808 90.6395H93.424C92.9479 90.6395 92.7098 90.8898 92.7098 91.3904C92.7098 91.891 92.954 92.1413 93.4424 92.1413H99.8159C100.304 92.1413 100.549 91.891 100.549 91.3904C100.549 90.8898 100.31 90.6395 99.8342 90.6395H97.1053L102.417 82.8007L107.71 90.6395H104.853C104.572 90.6395 104.352 90.7189 104.193 90.8776C104.034 91.0241 103.955 91.195 103.955 91.3904C103.955 91.598 104.034 91.775 104.193 91.9215C104.352 92.0681 104.578 92.1413 104.871 92.1413H110.951C111.452 92.1413 111.702 91.8849 111.702 91.3721C111.702 90.8837 111.464 90.6395 110.988 90.6395H109.651L103.406 81.3539L109.559 72.2697H110.896C111.373 72.2697 111.611 72.0133 111.611 71.5005C111.611 70.9632 111.366 70.6946 110.878 70.6946H105.585Z" fill="black"/>
</svg>
